<?xml version="1.0" encoding="utf-8"?>
<!-- Generator: Adobe Illustrator 28.1.0, SVG Export Plug-In . SVG Version: 6.00 Build 0)  -->
<svg version="1.1" id="Layer_1" xmlns="http://www.w3.org/2000/svg" xmlns:xlink="http://www.w3.org/1999/xlink" x="0px" y="0px"
	 viewBox="0 0 805 600" style="enable-background:new 0 0 805 600;" xml:space="preserve">
<style type="text/css">
	.st0{fill:#FFFFFF;}
	.st1{fill:none;stroke:#437DB3;stroke-width:3.8164;}
	.st2{fill:none;stroke:#5E4FA2;stroke-width:13.3575;}
	.st3{fill:none;stroke:#437DB3;stroke-width:5.7246;}
	.st4{fill:none;stroke:#5DB4AC;stroke-width:3.8164;}
	.st5{fill:none;stroke:#5E4FA2;stroke-width:5.7246;}
	.st6{fill:none;stroke:#C2E69F;stroke-width:1.9082;}
	.st7{fill:none;stroke:#EEF8A8;stroke-width:1.9082;}
	.st8{fill:none;stroke:#437DB3;stroke-width:7.6329;}
	.st9{fill:none;stroke:#E8F6A4;stroke-width:5.7246;}
	.st10{fill:none;stroke:#82CCA5;stroke-width:1.9082;}
	.st11{fill:none;stroke:#53AAAF;stroke-width:3.8164;}
	.st12{fill:none;stroke:#B6E2A1;stroke-width:1.9082;}
	.st13{fill:none;stroke:#53AAAF;stroke-width:1.9082;}
	.st14{fill:none;stroke:#53AAAF;stroke-width:9.5411;}
	.st15{fill:none;stroke:#555AA7;stroke-width:1.9082;}
	.st16{fill:none;stroke:#4D66AC;stroke-width:3.8164;}
	.st17{fill:none;stroke:#4288B5;stroke-width:1.9082;}
	.st18{fill:none;stroke:#69BDA9;stroke-width:3.8164;}
	.st19{fill:none;stroke:#5E4FA2;stroke-width:3.8164;}
	.st20{fill:none;stroke:#437DB3;stroke-width:1.9082;}
	.st21{fill:none;stroke:#75C5A7;stroke-width:1.9082;}
	.st22{fill:none;stroke:#53AAAF;stroke-width:15.2657;}
	.st23{fill:none;stroke:#D7EF9F;stroke-width:1.9082;}
	.st24{fill:none;stroke:#8FD2A4;stroke-width:1.9082;}
	.st25{fill:none;stroke:#A9DDA2;stroke-width:1.9082;}
	.st26{fill:none;stroke:#8FD2A4;stroke-width:7.6329;}
	.st27{fill:none;stroke:#5E4FA2;stroke-width:1.9082;}
	.st28{fill:none;stroke:#555AA7;stroke-width:3.8164;}
	.st29{fill:none;stroke:#4D66AC;stroke-width:1.9082;}
	.st30{fill:none;stroke:#A9DDA2;stroke-width:3.8164;}
	.st31{fill:none;stroke:#4A9FB2;stroke-width:1.9082;}
	.st32{fill:none;stroke:#E0F3A1;stroke-width:1.9082;}
	.st33{fill:none;stroke:#69BDA9;stroke-width:1.9082;}
	.st34{fill:none;stroke:#53AAAF;stroke-width:5.7246;}
	.st35{fill:none;stroke:#CDEB9F;stroke-width:1.9082;}
	.st36{fill:none;stroke:#8FD2A4;stroke-width:5.7246;}
	.st37{fill:none;stroke:#E8F6A4;stroke-width:3.8164;}
	.st38{fill:none;stroke:#CDEB9F;stroke-width:3.8164;}
	.st39{fill:none;stroke:#4594B4;stroke-width:1.9082;}
	.st40{fill:none;stroke:#4288B5;stroke-width:3.8164;}
	.st41{fill:none;stroke:#4288B5;stroke-width:5.7246;}
	.st42{fill:none;stroke:#E8F6A4;stroke-width:1.9082;}
	.st43{fill:none;stroke:#9CD7A3;stroke-width:1.9082;}
	.st44{fill:none;stroke:#4771B0;stroke-width:1.9082;}
	.st45{fill:none;stroke:#FDF5AD;stroke-width:1.9082;}
	.st46{fill:none;stroke:#FEEB9F;stroke-width:1.9082;}
	.st47{fill:none;stroke:#FDC172;stroke-width:3.8164;}
	.st48{fill:none;stroke:#FEEB9F;stroke-width:5.7246;}
	.st49{fill:none;stroke:#FDC172;stroke-width:5.7246;}
	.st50{fill:none;stroke:#FEDD8D;stroke-width:5.7246;}
	.st51{fill:none;stroke:#F8F9B0;stroke-width:5.7246;}
	.st52{fill:none;stroke:#F4F9AD;stroke-width:9.5411;}
	.st53{fill:none;stroke:#F4F9AD;stroke-width:1.9082;}
	.st54{fill:none;stroke:#FEEB9F;stroke-width:13.3575;}
	.st55{fill:none;stroke:#E0504A;stroke-width:1.9082;}
	.st56{fill:none;stroke:#FCAC63;stroke-width:9.5411;}
	.st57{fill:none;stroke:#FAA05C;stroke-width:1.9082;}
	.st58{fill:none;stroke:#FDB76A;stroke-width:1.9082;}
	.st59{fill:none;stroke:#FBF8B0;stroke-width:5.7246;}
	.st60{fill:none;stroke:#FDC172;stroke-width:7.6329;}
	.st61{fill:none;stroke:#FEDD8D;stroke-width:1.9082;}
	.st62{fill:none;stroke:#FECB7B;stroke-width:1.9082;}
	.st63{fill:none;stroke:#FEF1A7;stroke-width:1.9082;}
	.st64{fill:none;stroke:#FBF8B0;stroke-width:1.9082;}
	.st65{fill:none;stroke:#FEE596;stroke-width:1.9082;}
	.st66{fill:none;stroke:#E75B49;stroke-width:1.9082;}
	.st67{fill:none;stroke:#FEEB9F;stroke-width:3.8164;}
	.st68{fill:none;stroke:#FED483;stroke-width:1.9082;}
	.st69{fill:none;stroke:#C8314A;stroke-width:1.9082;}
	.st70{fill:none;stroke:#9E0142;stroke-width:1.9082;}
	.st71{fill:none;stroke:#FED483;stroke-width:3.8164;}
	.st72{fill:none;stroke:#F78751;stroke-width:3.8164;}
	.st73{fill:none;stroke:#F78751;stroke-width:1.9082;}
	.st74{fill:none;stroke:#F4F9AD;stroke-width:3.8164;}
	.st75{fill:none;stroke:#FDC172;stroke-width:1.9082;}
	.st76{fill:none;stroke:#D9464B;stroke-width:1.9082;}
	.st77{fill:none;stroke:#FEDD8D;stroke-width:3.8164;}
	.st78{fill:none;stroke:#EC6549;stroke-width:1.9082;}
	.st79{fill:none;stroke:#FCAC63;stroke-width:1.9082;}
	.st80{fill:none;stroke:#F0704A;stroke-width:1.9082;}
	.st81{fill:none;stroke:#FAA05C;stroke-width:3.8164;}
	.st82{fill:none;stroke:#D13C4B;stroke-width:1.9082;}
	.st83{fill:none;stroke:#B41947;stroke-width:1.9082;}
	.st84{fill:none;stroke:#BE2549;stroke-width:1.9082;}
	.st85{fill:none;stroke:#F99456;stroke-width:1.9082;}
	.st86{fill:none;stroke:#EC6549;stroke-width:3.8164;}
	.st87{fill:none;stroke:#A90D45;stroke-width:1.9082;}
	.st88{fill:none;stroke:#F47C4D;stroke-width:1.9082;}
	.st89{font-family:'Arial-BoldMT';}
	.st90{font-size:7.1159px;}
	.st91{font-size:8.8948px;}
	.st92{font-size:9px;}
	.st93{fill:#7B7B7B;}
	.st94{font-size:10.6738px;}
</style>
<rect id="background" x="45.3" y="32" class="st0" width="716" height="533.7"/>
<g>
	<rect x="56.4" y="73.9" width="4.4" height="1.7"/>
	<rect x="403.3" y="62.8" width="4.4" height="1.7"/>
	<rect x="56.4" y="80" width="4.4" height="1.7"/>
	<rect x="56.4" y="86.2" width="4.4" height="1.7"/>
	<rect x="403.3" y="68.9" width="4.4" height="1.7"/>
	<rect x="403.3" y="75.1" width="4.4" height="1.7"/>
	<rect x="403.3" y="81.2" width="4.4" height="1.7"/>
	<rect x="403.3" y="87.3" width="4.4" height="1.7"/>
	<rect x="750.2" y="40.5" width="4.4" height="1.7"/>
	<rect x="750.2" y="46.7" width="4.4" height="1.7"/>
	<rect x="750.2" y="52.8" width="4.4" height="1.7"/>
	<rect x="750.2" y="59" width="4.4" height="1.7"/>
	<rect x="750.2" y="65.1" width="4.4" height="1.7"/>
	<rect x="750.2" y="71.3" width="4.4" height="1.7"/>
	<rect x="56.4" y="92.3" width="4.4" height="3.4"/>
	<rect x="56.4" y="100.2" width="4.4" height="3.4"/>
	<rect x="403.3" y="93.5" width="4.4" height="3.4"/>
	<rect x="403.3" y="101.3" width="4.4" height="3.4"/>
	<rect x="403.3" y="109.2" width="4.4" height="3.4"/>
	<rect x="403.3" y="117" width="4.4" height="3.4"/>
	<rect x="403.3" y="124.9" width="4.4" height="3.4"/>
	<rect x="750.2" y="77.4" width="4.4" height="3.4"/>
	<rect x="750.2" y="85.2" width="4.4" height="3.4"/>
	<rect x="750.2" y="93.1" width="4.4" height="3.4"/>
	<rect x="750.2" y="100.9" width="4.4" height="3.4"/>
	<rect x="750.2" y="108.8" width="4.4" height="3.4"/>
	<rect x="750.2" y="116.6" width="4.4" height="3.4"/>
	<rect x="750.2" y="124.5" width="4.4" height="3.4"/>
	<rect x="403.3" y="132.7" width="4.4" height="5.1"/>
	<rect x="56.4" y="108" width="4.4" height="5.1"/>
	<rect x="56.4" y="117.5" width="4.4" height="5.1"/>
	<rect x="403.3" y="142.2" width="4.4" height="5.1"/>
	<rect x="750.2" y="132.3" width="4.4" height="5.1"/>
	<rect x="750.2" y="141.8" width="4.4" height="5.1"/>
	<rect x="750.2" y="151.4" width="4.4" height="5.1"/>
	<rect x="750.2" y="160.9" width="4.4" height="5.1"/>
	<rect x="750.2" y="170.5" width="4.4" height="5.1"/>
	<rect x="56.4" y="127.1" width="4.4" height="6.8"/>
	<rect x="403.3" y="151.8" width="4.4" height="6.8"/>
	<rect x="403.3" y="163" width="4.4" height="6.8"/>
	<rect x="56.4" y="138.3" width="4.4" height="6.8"/>
	<rect x="56.4" y="149.6" width="4.4" height="6.8"/>
	<rect x="750.2" y="180" width="4.4" height="6.8"/>
	<rect x="750.2" y="191.2" width="4.4" height="6.8"/>
	<rect x="750.2" y="202.5" width="4.4" height="6.8"/>
	<rect x="750.2" y="213.7" width="4.4" height="6.8"/>
	<rect x="403.3" y="174.3" width="4.4" height="8.5"/>
	<rect x="56.4" y="160.8" width="4.4" height="8.5"/>
	<rect x="56.4" y="173.7" width="4.4" height="8.5"/>
	<rect x="56.4" y="186.7" width="4.4" height="8.5"/>
	<rect x="403.3" y="187.2" width="4.4" height="8.5"/>
	<rect x="403.3" y="200.1" width="4.4" height="8.5"/>
	<rect x="750.2" y="224.9" width="4.4" height="8.5"/>
	<rect x="56.4" y="199.6" width="4.4" height="10.2"/>
	<rect x="403.3" y="213.1" width="4.4" height="10.2"/>
	<rect x="403.3" y="227.7" width="4.4" height="10.2"/>
	<rect x="750.2" y="237.9" width="4.4" height="10.2"/>
	<rect x="750.2" y="252.5" width="4.4" height="10.2"/>
	<rect x="750.2" y="267.1" width="4.4" height="10.2"/>
	<rect x="403.3" y="242.3" width="4.4" height="11.9"/>
	<rect x="56.4" y="214.2" width="4.4" height="11.9"/>
	<rect x="750.2" y="281.8" width="4.4" height="11.9"/>
	<rect x="750.2" y="298.1" width="4.4" height="11.9"/>
	<rect x="750.2" y="314.4" width="4.4" height="11.9"/>
	<rect x="403.3" y="258.6" width="4.4" height="13.6"/>
	<rect x="750.2" y="330.8" width="4.4" height="13.6"/>
	<rect x="56.4" y="230.6" width="4.4" height="15.3"/>
	<rect x="750.2" y="348.8" width="4.4" height="15.3"/>
	<rect x="750.2" y="368.5" width="4.4" height="15.3"/>
	<rect x="56.4" y="250.3" width="4.4" height="17"/>
	<rect x="56.4" y="271.7" width="4.4" height="17"/>
	<rect x="403.3" y="276.7" width="4.4" height="17"/>
	<rect x="750.2" y="388.2" width="4.4" height="17"/>
	<rect x="403.3" y="298.1" width="4.4" height="18.7"/>
	<rect x="56.4" y="293.1" width="4.4" height="18.7"/>
	<rect x="750.2" y="409.6" width="4.4" height="18.7"/>
	<rect x="403.3" y="321.2" width="4.4" height="20.4"/>
	<rect x="750.2" y="432.8" width="4.4" height="20.4"/>
	<rect x="750.2" y="457.6" width="4.4" height="22.1"/>
	<rect x="750.2" y="484.1" width="4.4" height="25.5"/>
	<rect x="403.3" y="346" width="4.4" height="27.2"/>
	<rect x="56.4" y="316.2" width="4.4" height="33.9"/>
	<rect x="403.3" y="377.6" width="4.4" height="39"/>
	<rect x="56.4" y="354.6" width="4.4" height="42.4"/>
	<rect x="750.2" y="514" width="4.4" height="42.4"/>
	<rect x="403.3" y="421.1" width="4.4" height="44.1"/>
	<rect x="56.4" y="401.5" width="4.4" height="50.9"/>
	<rect x="403.3" y="469.7" width="4.4" height="64.5"/>
	<rect x="56.4" y="456.9" width="4.4" height="66.2"/>
</g>
<g>
	<g>
		<path class="st1" d="M58.6,363.5c171.2,0,171.2-185.5,342.5-185.5"/>
	</g>
	<g>
		<path class="st2" d="M58.6,446.9c171.2,0,171.2,68.2,342.5,68.2"/>
	</g>
	<g>
		<path class="st3" d="M58.6,391.5c171.2,0,171.2,58,342.5,58"/>
	</g>
	<g>
		<path class="st4" d="M58.6,94.4c171.2,0,171.2,377.4,342.5,377.4"/>
	</g>
	<g>
		<path class="st5" d="M58.6,438.4c171.2,0,171.2,16.2,342.5,16.2"/>
	</g>
	<g>
		<path class="st6" d="M58.6,242c171.2,0,171.2,82.2,342.5,82.2"/>
	</g>
	<g>
		<path class="st7" d="M58.6,204.2c171.2,0,171.2-70.3,342.5-70.3"/>
	</g>
	<g>
		<path class="st8" d="M58.6,385.6c171.2,0,171.2,7.7,342.5,7.7"/>
	</g>
	<g>
		<path class="st9" d="M58.6,265.1c171.2,0,171.2,226.2,342.5,226.2"/>
	</g>
	<g>
		<path class="st2" d="M58.6,429.9c171.2,0,171.2-27.3,342.5-27.3"/>
	</g>
	<g>
		<path class="st10" d="M58.6,133.4c171.2,0,171.2,342.6,342.5,342.6"/>
	</g>
	<g>
		<path class="st11" d="M58.6,477.6c171.2,0,171.2-206.7,342.5-206.7"/>
	</g>
	<g>
		<path class="st12" d="M58.6,101.4c171.2,0,171.2,197.9,342.5,197.9"/>
	</g>
	<g>
		<path class="st13" d="M58.6,475.1c171.2,0,171.2-221.3,342.5-221.3"/>
	</g>
	<g>
		<path class="st14" d="M58.6,497.2c171.2,0,171.2-84.3,342.5-84.3"/>
	</g>
	<g>
		<path class="st15" d="M58.6,162c171.2,0,171.2-67.3,342.5-67.3"/>
	</g>
	<g>
		<path class="st13" d="M58.6,459.8c171.2,0,171.2-322.5,342.5-322.5"/>
	</g>
	<g>
		<path class="st16" d="M58.6,175.8c171.2,0,171.2,41,342.5,41"/>
	</g>
	<g>
		<path class="st17" d="M58.6,272.9c171.2,0,171.2-176.5,342.5-176.5"/>
	</g>
	<g>
		<path class="st18" d="M58.6,308.8c171.2,0,171.2,131.4,342.5,131.4"/>
	</g>
	<g>
		<path class="st19" d="M58.6,422.3c171.2,0,171.2-83.7,342.5-83.7"/>
	</g>
	<g>
		<path class="st17" d="M58.6,283.1c171.2,0,171.2,154.5,342.5,154.5"/>
	</g>
	<g>
		<path class="st11" d="M58.6,467.5c171.2,0,171.2-310.2,342.5-310.2"/>
	</g>
	<g>
		<path class="st20" d="M58.6,361c171.2,0,171.2-193.3,342.5-193.3"/>
	</g>
	<g>
		<path class="st21" d="M58.6,189.6c171.2,0,171.2,132.9,342.5,132.9"/>
	</g>
	<g>
		<path class="st11" d="M58.6,470.8c171.2,0,171.2-276.5,342.5-276.5"/>
	</g>
	<g>
		<path class="st3" d="M58.6,377.9c171.2,0,171.2-43.6,342.5-43.6"/>
	</g>
	<g>
		<path class="st13" d="M58.6,458.1c171.2,0,171.2-353.8,342.5-353.8"/>
	</g>
	<g>
		<path class="st14" d="M58.6,505.6c171.2,0,171.2-44.2,342.5-44.2"/>
	</g>
	<g>
		<path class="st22" d="M58.6,516.7c171.2,0,171.2,11.1,342.5,11.1"/>
	</g>
	<g>
		<path class="st23" d="M58.6,75.1c171.2,0,171.2,202.8,342.5,202.8"/>
	</g>
	<g>
		<path class="st20" d="M58.6,355.9C229.8,355.9,229.8,64,401.1,64"/>
	</g>
	<g>
		<path class="st24" d="M58.6,319.2c171.2,0,171.2-207.1,342.5-207.1"/>
	</g>
	<g>
		<path class="st25" d="M58.6,139.6c171.2,0,171.2,141.7,342.5,141.7"/>
	</g>
	<g>
		<path class="st26" d="M58.6,337c171.2,0,171.2,23,342.5,23"/>
	</g>
	<g>
		<path class="st14" d="M58.6,488.7c171.2,0,171.2-119.3,342.5-119.3"/>
	</g>
	<g>
		<path class="st27" d="M58.6,407.8c171.2,0,171.2-216,342.5-216"/>
	</g>
	<g>
		<path class="st28" d="M58.6,168c171.2,0,171.2,312.3,342.5,312.3"/>
	</g>
	<g>
		<path class="st12" d="M58.6,103.1c171.2,0,171.2,371.2,342.5,371.2"/>
	</g>
	<g>
		<path class="st21" d="M58.6,193c171.2,0,171.2,192.7,342.5,192.7"/>
	</g>
	<g>
		<path class="st10" d="M58.6,131.7c171.2,0,171.2,248.9,342.5,248.9"/>
	</g>
	<g>
		<path class="st29" d="M58.6,180.1c171.2,0,171.2,203.9,342.5,203.9"/>
	</g>
	<g>
		<path class="st1" d="M58.6,358.4c171.2,0,171.2-204.5,342.5-204.5"/>
	</g>
	<g>
		<path class="st30" d="M58.6,142.1c171.2,0,171.2,282.8,342.5,282.8"/>
	</g>
	<g>
		<path class="st6" d="M58.6,245.4c171.2,0,171.2,242.5,342.5,242.5"/>
	</g>
	<g>
		<path class="st31" d="M58.6,110.9c171.2,0,171.2,236.3,342.5,236.3"/>
	</g>
	<g>
		<path class="st5" d="M58.6,418c171.2,0,171.2-103.4,342.5-103.4"/>
	</g>
	<g>
		<path class="st25" d="M58.6,144.6c171.2,0,171.2,333.1,342.5,333.1"/>
	</g>
	<g>
		<path class="st7" d="M58.6,209.3c171.2,0,171.2,143,342.5,143"/>
	</g>
	<g>
		<path class="st31" d="M58.6,112.6c171.2,0,171.2,309.7,342.5,309.7"/>
	</g>
	<g>
		<path class="st24" d="M58.6,320.9c171.2,0,171.2-200.9,342.5-200.9"/>
	</g>
	<g>
		<path class="st1" d="M58.6,366.9c171.2,0,171.2-145,342.5-145"/>
	</g>
	<g>
		<path class="st32" d="M58.6,120.5c171.2,0,171.2,139.4,342.5,139.4"/>
	</g>
	<g>
		<path class="st1" d="M58.6,373.7c171.2,0,171.2-63.3,342.5-63.3"/>
	</g>
	<g>
		<path class="st21" d="M58.6,191.3c171.2,0,171.2,159.4,342.5,159.4"/>
	</g>
	<g>
		<path class="st33" d="M58.6,302.8c171.2,0,171.2-34.5,342.5-34.5"/>
	</g>
	<g>
		<path class="st33" d="M58.6,311.3c171.2,0,171.2,188.5,342.5,188.5"/>
	</g>
	<g>
		<path class="st24" d="M58.6,332.7c171.2,0,171.2-1.8,342.5-1.8"/>
	</g>
	<g>
		<path class="st15" d="M58.6,163.7c171.2,0,171.2,137.3,342.5,137.3"/>
	</g>
	<g>
		<path class="st34" d="M58.6,463.2c171.2,0,171.2-318,342.5-318"/>
	</g>
	<g>
		<path class="st35" d="M58.6,152.5c171.2,0,171.2,61.8,342.5,61.8"/>
	</g>
	<g>
		<path class="st1" d="M58.6,395.8c171.2,0,171.2,111.7,342.5,111.7"/>
	</g>
	<g>
		<path class="st10" d="M58.6,130c171.2,0,171.2,113.5,342.5,113.5"/>
	</g>
	<g>
		<path class="st36" d="M58.6,348c171.2,0,171.2,155.2,342.5,155.2"/>
	</g>
	<g>
		<path class="st33" d="M58.6,296.1c171.2,0,171.2-160.4,342.5-160.4"/>
	</g>
	<g>
		<path class="st13" d="M58.6,483.6c171.2,0,171.2-142.5,342.5-142.5"/>
	</g>
	<g>
		<path class="st37" d="M58.6,260.9c171.2,0,171.2,174.2,342.5,174.2"/>
	</g>
	<g>
		<path class="st19" d="M58.6,405.3c171.2,0,171.2-223.9,342.5-223.9"/>
	</g>
	<g>
		<path class="st24" d="M58.6,331.1c171.2,0,171.2-23.2,342.5-23.2"/>
	</g>
	<g>
		<path class="st36" d="M58.6,342.9c171.2,0,171.2,101.5,342.5,101.5"/>
	</g>
	<g>
		<path class="st33" d="M58.6,304.5c171.2,0,171.2,24.7,342.5,24.7"/>
	</g>
	<g>
		<path class="st38" d="M58.6,155c171.2,0,171.2,273.3,342.5,273.3"/>
	</g>
	<g>
		<path class="st39" d="M58.6,225.6c171.2,0,171.2,260.6,342.5,260.6"/>
	</g>
	<g>
		<path class="st6" d="M58.6,236.9c171.2,0,171.2-33.8,342.5-33.8"/>
	</g>
	<g>
		<path class="st40" d="M58.6,280.6c171.2,0,171.2,107.6,342.5,107.6"/>
	</g>
	<g>
		<path class="st5" d="M58.6,412.9c171.2,0,171.2-124.8,342.5-124.8"/>
	</g>
	<g>
		<path class="st20" d="M58.6,381.3c171.2,0,171.2-17.1,342.5-17.1"/>
	</g>
	<g>
		<path class="st37" d="M58.6,254.1c171.2,0,171.2,11.8,342.5,11.8"/>
	</g>
	<g>
		<path class="st41" d="M58.6,286.5c171.2,0,171.2,209.9,342.5,209.9"/>
	</g>
	<g>
		<path class="st42" d="M58.6,256.6c171.2,0,171.2,26.4,342.5,26.4"/>
	</g>
	<g>
		<path class="st21" d="M58.6,194.7c171.2,0,171.2,289.8,342.5,289.8"/>
	</g>
	<g>
		<path class="st11" d="M58.6,481c171.2,0,171.2-188.7,342.5-188.7"/>
	</g>
	<g>
		<path class="st18" d="M58.6,300.3c171.2,0,171.2-52.5,342.5-52.5"/>
	</g>
	<g>
		<path class="st39" d="M58.6,220.6c171.2,0,171.2,24.7,342.5,24.7"/>
	</g>
	<g>
		<path class="st24" d="M58.6,327.7c171.2,0,171.2-77.3,342.5-77.3"/>
	</g>
	<g>
		<path class="st43" d="M58.6,81.3c171.2,0,171.2,198.3,342.5,198.3"/>
	</g>
	<g>
		<path class="st33" d="M58.6,297.8c171.2,0,171.2-62,342.5-62"/>
	</g>
	<g>
		<path class="st44" d="M58.6,87.4c171.2,0,171.2,291.5,342.5,291.5"/>
	</g>
	<g>
		<path class="st15" d="M58.6,165.4c171.2,0,171.2,216.8,342.5,216.8"/>
	</g>
	<g>
		<path class="st33" d="M58.6,294.4c171.2,0,171.2-183.9,342.5-183.9"/>
	</g>
	<g>
		<path class="st39" d="M58.6,218.9c171.2,0,171.2-17.5,342.5-17.5"/>
	</g>
	<g>
		<path class="st7" d="M58.6,200.8c171.2,0,171.2-130.7,342.5-130.7"/>
	</g>
	<g>
		<path class="st35" d="M58.6,150.8c171.2,0,171.2-74.5,342.5-74.5"/>
	</g>
	<g>
		<path class="st6" d="M58.6,235.2c171.2,0,171.2-59.7,342.5-59.7"/>
	</g>
	<g>
		<path class="st20" d="M58.6,371.1c171.2,0,171.2-119.1,342.5-119.1"/>
	</g>
	<g>
		<path class="st39" d="M58.6,217.2c171.2,0,171.2-27,342.5-27"/>
	</g>
	<g>
		<path class="st40" d="M58.6,277.2c171.2,0,171.2,49.5,342.5,49.5"/>
	</g>
	<g>
		<path class="st6" d="M58.6,233.5c171.2,0,171.2-107.4,342.5-107.4"/>
	</g>
	<g>
		<path class="st42" d="M58.6,251.5c171.2,0,171.2-17.5,342.5-17.5"/>
	</g>
	<g>
		<path class="st29" d="M58.6,178.4c171.2,0,171.2,124.4,342.5,124.4"/>
	</g>
	<g>
		<path class="st42" d="M58.6,258.3c171.2,0,171.2,47.8,342.5,47.8"/>
	</g>
	<g>
		<path class="st17" d="M58.6,274.6c171.2,0,171.2-156.4,342.5-156.4"/>
	</g>
	<g>
		<path class="st39" d="M58.6,223.9c171.2,0,171.2,206.9,342.5,206.9"/>
	</g>
	<g>
		<path class="st24" d="M58.6,324.3c171.2,0,171.2-119.5,342.5-119.5"/>
	</g>
	<g>
		<path class="st7" d="M58.6,205.9c171.2,0,171.2,55.7,342.5,55.7"/>
	</g>
	<g>
		<path class="st20" d="M58.6,369.4c171.2,0,171.2-132,342.5-132"/>
	</g>
	<g>
		<path class="st13" d="M58.6,473.4c171.2,0,171.2-265.2,342.5-265.2"/>
	</g>
	<g>
		<path class="st33" d="M58.6,306.2c171.2,0,171.2,49.5,342.5,49.5"/>
	</g>
	<g>
		<path class="st29" d="M58.6,181.8c171.2,0,171.2,301.1,342.5,301.1"/>
	</g>
	<g>
		<path class="st24" d="M58.6,322.6c171.2,0,171.2-194.8,342.5-194.8"/>
	</g>
	<g>
		<path class="st39" d="M58.6,222.3c171.2,0,171.2,131.8,342.5,131.8"/>
	</g>
	<g>
		<path class="st24" d="M58.6,326c171.2,0,171.2-106.6,342.5-106.6"/>
	</g>
	<g>
		<path class="st32" d="M58.6,122.2c171.2,0,171.2,226.8,342.5,226.8"/>
	</g>
	<g>
		<path class="st21" d="M58.6,187.9c171.2,0,171.2-23.6,342.5-23.6"/>
	</g>
	<g>
		<path class="st10" d="M58.6,128.3c171.2,0,171.2,60.1,342.5,60.1"/>
	</g>
	<g>
		<path class="st27" d="M58.6,402.7c171.2,0,171.2-233.4,342.5-233.4"/>
	</g>
	<g>
		<path class="st6" d="M58.6,231.8c171.2,0,171.2-149.4,342.5-149.4"/>
	</g>
	<g>
		<path class="st32" d="M58.6,118.8c171.2,0,171.2,111.8,342.5,111.8"/>
	</g>
	<g>
		<path class="st6" d="M58.6,243.7c171.2,0,171.2,188.9,342.5,188.9"/>
	</g>
	<g>
		<path class="st31" d="M58.6,109.2c171.2,0,171.2,119.7,342.5,119.7"/>
	</g>
	<g>
		<path class="st24" d="M58.6,329.4c171.2,0,171.2-44.7,342.5-44.7"/>
	</g>
	<g>
		<path class="st7" d="M58.6,202.5c171.2,0,171.2-100,342.5-100"/>
	</g>
	<g>
		<path class="st6" d="M58.6,238.6c171.2,0,171.2-6.3,342.5-6.3"/>
	</g>
	<g>
		<path class="st7" d="M58.6,207.6c171.2,0,171.2,96.8,342.5,96.8"/>
	</g>
	<g>
		<path class="st24" d="M58.6,317.5c171.2,0,171.2-228.9,342.5-228.9"/>
	</g>
	<g>
		<path class="st39" d="M58.6,215.5c171.2,0,171.2-49.5,342.5-49.5"/>
	</g>
	<g>
		<path class="st27" d="M58.6,409.5c171.2,0,171.2-203.1,342.5-203.1"/>
	</g>
	<g>
		<path class="st6" d="M58.6,240.3c171.2,0,171.2,23,342.5,23"/>
	</g>
	<g>
		<path class="st45" d="M405.5,177.2C576.7,177.2,576.7,350,748,350"/>
	</g>
	<g>
		<path class="st46" d="M405.5,472.6c171.2,0,171.2-392.3,342.5-392.3"/>
	</g>
	<g>
		<path class="st47" d="M405.5,460.5c171.2,0,171.2,35.8,342.5,35.8"/>
	</g>
	<g>
		<path class="st48" d="M405.5,484.5c171.2,0,171.2-299.9,342.5-299.9"/>
	</g>
	<g>
		<path class="st49" d="M405.5,430.8c171.2,0,171.2-236.7,342.5-236.7"/>
	</g>
	<g>
		<path class="st50" d="M405.5,327.5c171.2,0,171.2,29.3,342.5,29.3"/>
	</g>
	<g>
		<path class="st48" d="M405.5,477.7c171.2,0,171.2-342.5,342.5-342.5"/>
	</g>
	<g>
		<path class="st51" d="M405.5,135.6C576.7,135.6,576.7,522,748,522"/>
	</g>
	<g>
		<path class="st52" d="M405.5,397.5c171.2,0,171.2-107.7,342.5-107.7"/>
	</g>
	<g>
		<path class="st48" d="M405.5,532c171.2,0,171.2,22.2,342.5,22.2"/>
	</g>
	<g>
		<path class="st52" d="M405.5,412.8c171.2,0,171.2,59.6,342.5,59.6"/>
	</g>
	<g>
		<path class="st53" d="M405.5,406c171.2,0,171.2,15,342.5,15"/>
	</g>
	<g>
		<path class="st53" d="M405.5,402.6c171.2,0,171.2-42.4,342.5-42.4"/>
	</g>
	<g>
		<path class="st48" d="M405.5,498.1c171.2,0,171.2-190.3,342.5-190.3"/>
	</g>
	<g>
		<path class="st54" d="M405.5,523.5c171.2,0,171.2-19.6,342.5-19.6"/>
	</g>
	<g>
		<path class="st55" d="M405.5,270.1c171.2,0,171.2,218.7,342.5,218.7"/>
	</g>
	<g>
		<path class="st56" d="M405.5,309.5c171.2,0,171.2,65.3,342.5,65.3"/>
	</g>
	<g>
		<path class="st47" d="M405.5,455.5c171.2,0,171.2-3.6,342.5-3.6"/>
	</g>
	<g>
		<path class="st57" d="M405.5,250.3C576.7,250.3,576.7,487,748,487"/>
	</g>
	<g>
		<path class="st58" d="M405.5,96.4c171.2,0,171.2,420.5,342.5,420.5"/>
	</g>
	<g>
		<path class="st59" d="M405.5,221.1c171.2,0,171.2,307.7,342.5,307.7"/>
	</g>
	<g>
		<path class="st58" d="M405.5,94.7c171.2,0,171.2,316.2,342.5,316.2"/>
	</g>
	<g>
		<path class="st60" d="M405.5,450.4c171.2,0,171.2-25.1,342.5-25.1"/>
	</g>
	<g>
		<path class="st61" d="M405.5,330.9c171.2,0,171.2,49,342.5,49"/>
	</g>
	<g>
		<path class="st62" d="M405.5,156.4c171.2,0,171.2,284.4,342.5,284.4"/>
	</g>
	<g>
		<path class="st63" d="M405.5,167.6c171.2,0,171.2,274.8,342.5,274.8"/>
	</g>
	<g>
		<path class="st64" d="M405.5,217.7c171.2,0,171.2,134,342.5,134"/>
	</g>
	<g>
		<path class="st65" d="M405.5,195.2c171.2,0,171.2,199.3,342.5,199.3"/>
	</g>
	<g>
		<path class="st61" d="M405.5,332.6c171.2,0,171.2,63.6,342.5,63.6"/>
	</g>
	<g>
		<path class="st66" d="M405.5,102.6c171.2,0,171.2-16.1,342.5-16.1"/>
	</g>
	<g>
		<path class="st47" d="M405.5,463.9c171.2,0,171.2,86.1,342.5,86.1"/>
	</g>
	<g>
		<path class="st67" d="M405.5,514.2c171.2,0,171.2-110.3,342.5-110.3"/>
	</g>
	<g>
		<path class="st68" d="M405.5,279.6c171.2,0,171.2-136.5,342.5-136.5"/>
	</g>
	<g>
		<path class="st69" d="M405.5,64C576.7,64,576.7,389.5,748,389.5"/>
	</g>
	<g>
		<path class="st70" d="M405.5,112.1c171.2,0,171.2,406.5,342.5,406.5"/>
	</g>
	<g>
		<path class="st71" d="M405.5,292.3c171.2,0,171.2,247.5,342.5,247.5"/>
	</g>
	<g>
		<path class="st72" d="M405.5,349.8c171.2,0,171.2-254.6,342.5-254.6"/>
	</g>
	<g>
		<path class="st73" d="M405.5,355.7c171.2,0,171.2-147,342.5-147"/>
	</g>
	<g>
		<path class="st65" d="M405.5,193.5c171.2,0,171.2,10.2,342.5,10.2"/>
	</g>
	<g>
		<path class="st72" d="M405.5,360c171.2,0,171.2-36.7,342.5-36.7"/>
	</g>
	<g>
		<path class="st67" d="M405.5,507.4c171.2,0,171.2-144.7,342.5-144.7"/>
	</g>
	<g>
		<path class="st74" d="M405.5,379.7c171.2,0,171.2-224.6,342.5-224.6"/>
	</g>
	<g>
		<path class="st53" d="M405.5,392.4c171.2,0,171.2-148.2,342.5-148.2"/>
	</g>
	<g>
		<path class="st62" d="M405.5,153c171.2,0,171.2,179,342.5,179"/>
	</g>
	<g>
		<path class="st75" d="M405.5,458c171.2,0,171.2,19.5,342.5,19.5"/>
	</g>
	<g>
		<path class="st47" d="M405.5,436.8c171.2,0,171.2-190,342.5-190"/>
	</g>
	<g>
		<path class="st55" d="M405.5,266.7c171.2,0,171.2,52.4,342.5,52.4"/>
	</g>
	<g>
		<path class="st46" d="M405.5,516.8c171.2,0,171.2-37.6,342.5-37.6"/>
	</g>
	<g>
		<path class="st46" d="M405.5,489.6c171.2,0,171.2-227.4,342.5-227.4"/>
	</g>
	<g>
		<path class="st46" d="M405.5,481.1c171.2,0,171.2-334.7,342.5-334.7"/>
	</g>
	<g>
		<path class="st67" d="M405.5,504c171.2,0,171.2-161,342.5-161"/>
	</g>
	<g>
		<path class="st76" d="M405.5,120c171.2,0,171.2,315.7,342.5,315.7"/>
	</g>
	<g>
		<path class="st64" d="M405.5,214.3c171.2,0,171.2-172.5,342.5-172.5"/>
	</g>
	<g>
		<path class="st55" d="M405.5,271.8c171.2,0,171.2,265.5,342.5,265.5"/>
	</g>
	<g>
		<path class="st73" d="M405.5,347.3c171.2,0,171.2-268.6,342.5-268.6"/>
	</g>
	<g>
		<path class="st72" d="M405.5,370.2C576.7,370.2,576.7,493,748,493"/>
	</g>
	<g>
		<path class="st55" d="M405.5,261.6c171.2,0,171.2-19.1,342.5-19.1"/>
	</g>
	<g>
		<path class="st77" d="M405.5,335.2C576.7,335.2,576.7,445,748,445"/>
	</g>
	<g>
		<path class="st73" d="M405.5,365.9c171.2,0,171.2,81.6,342.5,81.6"/>
	</g>
	<g>
		<path class="st78" d="M405.5,143.5c171.2,0,171.2,269.1,342.5,269.1"/>
	</g>
	<g>
		<path class="st48" d="M405.5,493c171.2,0,171.2-217.8,342.5-217.8"/>
	</g>
	<g>
		<path class="st46" d="M405.5,470.9c171.2,0,171.2-423,342.5-423"/>
	</g>
	<g>
		<path class="st57" d="M405.5,243.6c171.2,0,171.2-36.5,342.5-36.5"/>
	</g>
	<g>
		<path class="st46" d="M405.5,501.5c171.2,0,171.2-175.6,342.5-175.6"/>
	</g>
	<g>
		<path class="st61" d="M405.5,324.1c171.2,0,171.2-39.4,342.5-39.4"/>
	</g>
	<g>
		<path class="st47" d="M405.5,441.9c171.2,0,171.2-138.3,342.5-138.3"/>
	</g>
	<g>
		<path class="st45" d="M405.5,182.3c171.2,0,171.2,343.1,342.5,343.1"/>
	</g>
	<g>
		<path class="st79" d="M405.5,304.4c171.2,0,171.2,32.7,342.5,32.7"/>
	</g>
	<g>
		<path class="st73" d="M405.5,357.4c171.2,0,171.2-56.4,342.5-56.4"/>
	</g>
	<g>
		<path class="st47" d="M405.5,445.3c171.2,0,171.2-105.6,342.5-105.6"/>
	</g>
	<g>
		<path class="st61" d="M405.5,337.7c171.2,0,171.2,152.7,342.5,152.7"/>
	</g>
	<g>
		<path class="st75" d="M405.5,422.4c171.2,0,171.2-368.3,342.5-368.3"/>
	</g>
	<g>
		<path class="st80" d="M405.5,201.4c171.2,0,171.2-113.2,342.5-113.2"/>
	</g>
	<g>
		<path class="st79" d="M405.5,314.6c171.2,0,171.2,151,342.5,151"/>
	</g>
	<g>
		<path class="st53" d="M405.5,407.7c171.2,0,171.2,41.6,342.5,41.6"/>
	</g>
	<g>
		<path class="st68" d="M405.5,288.1c171.2,0,171.2,81.6,342.5,81.6"/>
	</g>
	<g>
		<path class="st73" d="M405.5,372.7c171.2,0,171.2,174.8,342.5,174.8"/>
	</g>
	<g>
		<path class="st53" d="M405.5,382.3c171.2,0,171.2-218.4,342.5-218.4"/>
	</g>
	<g>
		<path class="st55" d="M405.5,265c171.2,0,171.2,3.4,342.5,3.4"/>
	</g>
	<g>
		<path class="st71" d="M405.5,283.8c171.2,0,171.2,50.7,342.5,50.7"/>
	</g>
	<g>
		<path class="st52" d="M405.5,387.4c171.2,0,171.2-157.8,342.5-157.8"/>
	</g>
	<g>
		<path class="st53" d="M405.5,404.3c171.2,0,171.2-3,342.5-3"/>
	</g>
	<g>
		<path class="st68" d="M405.5,289.8c171.2,0,171.2,174.1,342.5,174.1"/>
	</g>
	<g>
		<path class="st68" d="M405.5,286.4c171.2,0,171.2,67,342.5,67"/>
	</g>
	<g>
		<path class="st73" d="M405.5,354.1c171.2,0,171.2-201.4,342.5-201.4"/>
	</g>
	<g>
		<path class="st81" d="M405.5,246.1c171.2,0,171.2-6.1,342.5-6.1"/>
	</g>
	<g>
		<path class="st81" d="M405.5,252.9c171.2,0,171.2,281.9,342.5,281.9"/>
	</g>
	<g>
		<path class="st45" d="M405.5,178.9c171.2,0,171.2,214,342.5,214"/>
	</g>
	<g>
		<path class="st82" d="M405.5,235.7c171.2,0,171.2,226.5,342.5,226.5"/>
	</g>
	<g>
		<path class="st46" d="M405.5,487.9c171.2,0,171.2-290.3,342.5-290.3"/>
	</g>
	<g>
		<path class="st62" d="M405.5,158.1c171.2,0,171.2,300.7,342.5,300.7"/>
	</g>
	<g>
		<path class="st75" d="M405.5,424.1c171.2,0,171.2-279.3,342.5-279.3"/>
	</g>
	<g>
		<path class="st70" d="M405.5,110.4c171.2,0,171.2,61.3,342.5,61.3"/>
	</g>
	<g>
		<path class="st80" d="M405.5,208.1c171.2,0,171.2,277.2,342.5,277.2"/>
	</g>
	<g>
		<path class="st83" d="M405.5,70.1c171.2,0,171.2,445.1,342.5,445.1"/>
	</g>
	<g>
		<path class="st84" d="M405.5,76.3c171.2,0,171.2-16.1,342.5-16.1"/>
	</g>
	<g>
		<path class="st45" d="M405.5,175.5c171.2,0,171.2,81.6,342.5,81.6"/>
	</g>
	<g>
		<path class="st57" d="M405.5,248.6c171.2,0,171.2,68.7,342.5,68.7"/>
	</g>
	<g>
		<path class="st65" d="M405.5,191.8c171.2,0,171.2-29.7,342.5-29.7"/>
	</g>
	<g>
		<path class="st85" d="M405.5,126.1c171.2,0,171.2,47.3,342.5,47.3"/>
	</g>
	<g>
		<path class="st82" d="M405.5,237.4c171.2,0,171.2,294.8,342.5,294.8"/>
	</g>
	<g>
		<path class="st79" d="M405.5,299.3c171.2,0,171.2-124.2,342.5-124.2"/>
	</g>
	<g>
		<path class="st46" d="M405.5,474.3c171.2,0,171.2-370.5,342.5-370.5"/>
	</g>
	<g>
		<path class="st45" d="M405.5,180.6C576.7,180.6,576.7,416,748,416"/>
	</g>
	<g>
		<path class="st86" d="M405.5,146c171.2,0,171.2,292.2,342.5,292.2"/>
	</g>
	<g>
		<path class="st79" d="M405.5,302.7c171.2,0,171.2,18,342.5,18"/>
	</g>
	<g>
		<path class="st76" d="M405.5,118.3c171.2,0,171.2,272.9,342.5,272.9"/>
	</g>
	<g>
		<path class="st75" d="M405.5,427.4c171.2,0,171.2-246.2,342.5-246.2"/>
	</g>
	<g>
		<path class="st75" d="M405.5,425.7c171.2,0,171.2-260.2,342.5-260.2"/>
	</g>
	<g>
		<path class="st62" d="M405.5,154.7c171.2,0,171.2,259.6,342.5,259.6"/>
	</g>
	<g>
		<path class="st77" d="M405.5,340.3c171.2,0,171.2,204.7,342.5,204.7"/>
	</g>
	<g>
		<path class="st80" d="M405.5,204.8c171.2,0,171.2,54.1,342.5,54.1"/>
	</g>
	<g>
		<path class="st55" d="M405.5,263.3c171.2,0,171.2-2.8,342.5-2.8"/>
	</g>
	<g>
		<path class="st73" d="M405.5,367.6c171.2,0,171.2,99.7,342.5,99.7"/>
	</g>
	<g>
		<path class="st82" d="M405.5,234c171.2,0,171.2,183.7,342.5,183.7"/>
	</g>
	<g>
		<path class="st68" d="M405.5,277.9C576.7,277.9,576.7,110,748,110"/>
	</g>
	<g>
		<path class="st80" d="M405.5,203.1c171.2,0,171.2,2.3,342.5,2.3"/>
	</g>
	<g>
		<path class="st72" d="M405.5,363.4c171.2,0,171.2,35.4,342.5,35.4"/>
	</g>
	<g>
		<path class="st67" d="M405.5,510.8c171.2,0,171.2-128.4,342.5-128.4"/>
	</g>
	<g>
		<path class="st79" d="M405.5,301c171.2,0,171.2-82.7,342.5-82.7"/>
	</g>
	<g>
		<path class="st85" d="M405.5,127.8c171.2,0,171.2,87.1,342.5,87.1"/>
	</g>
	<g>
		<path class="st55" d="M405.5,268.4c171.2,0,171.2,151,342.5,151"/>
	</g>
	<g>
		<path class="st64" d="M405.5,216c171.2,0,171.2,67,342.5,67"/>
	</g>
	<g>
		<path class="st73" d="M405.5,352.4c171.2,0,171.2-250.2,342.5-250.2"/>
	</g>
	<g>
		<path class="st63" d="M405.5,164.3c171.2,0,171.2-44.7,342.5-44.7"/>
	</g>
	<g>
		<path class="st65" d="M405.5,190.1c171.2,0,171.2-64.4,342.5-64.4"/>
	</g>
	<g>
		<path class="st63" d="M405.5,169.3c171.2,0,171.2,291.2,342.5,291.2"/>
	</g>
	<g>
		<path class="st87" d="M405.5,82.4c171.2,0,171.2,35.4,342.5,35.4"/>
	</g>
	<g>
		<path class="st82" d="M405.5,230.6c171.2,0,171.2-14,342.5-14"/>
	</g>
	<g>
		<path class="st75" d="M405.5,439.3c171.2,0,171.2-167.6,342.5-167.6"/>
	</g>
	<g>
		<path class="st82" d="M405.5,232.3c171.2,0,171.2,67,342.5,67"/>
	</g>
	<g>
		<path class="st68" d="M405.5,281.3c171.2,0,171.2-11.2,342.5-11.2"/>
	</g>
	<g>
		<path class="st66" d="M405.5,104.3C576.7,104.3,576.7,434,748,434"/>
	</g>
	<g>
		<path class="st82" d="M405.5,228.9c171.2,0,171.2-162.6,342.5-162.6"/>
	</g>
	<g>
		<path class="st79" d="M405.5,316.3c171.2,0,171.2,226.1,342.5,226.1"/>
	</g>
	<g>
		<path class="st88" d="M405.5,88.6c171.2,0,171.2,165.2,342.5,165.2"/>
	</g>
	<g>
		<path class="st65" d="M405.5,188.4c171.2,0,171.2-115.9,342.5-115.9"/>
	</g>
	<g>
		<path class="st63" d="M405.5,166c171.2,0,171.2,89.5,342.5,89.5"/>
	</g>
	<g>
		<path class="st61" d="M405.5,322.4c171.2,0,171.2-210.7,342.5-210.7"/>
	</g>
	<g>
		<path class="st80" d="M405.5,206.4c171.2,0,171.2,109.2,342.5,109.2"/>
	</g>
	<g>
		<path class="st75" d="M405.5,434.2C576.7,434.2,576.7,220,748,220"/>
	</g>
	<g>
		<path class="st55" d="M405.5,259.9c171.2,0,171.2-132.5,342.5-132.5"/>
	</g>
</g>
<text transform="matrix(1 0 0 1 62.5728 76.2935)" class="st89 st90">4.7</text>
<text transform="matrix(1 0 0 1 409.4707 65.2065)" class="st89 st90">4.7</text>
<text transform="matrix(1 0 0 1 62.5728 82.4385)" class="st89 st90">5.4</text>
<text transform="matrix(1 0 0 1 62.9639 88.583)" class="st89 st90">6.6</text>
<text transform="matrix(1 0 0 1 409.4707 72.2407)" class="st89 st90">4.3</text>
<text transform="matrix(1 0 0 1 409.4707 78.3853)" class="st89 st90">4.4</text>
<text transform="matrix(1 0 0 1 409.4707 83.6406)" class="st89 st90">4.2</text>
<text transform="matrix(1 0 0 1 409.4707 90.6748)" class="st89 st91">5.4</text>
<text transform="matrix(1 0 0 1 660.8857 42.519)" class="st89 st90">Santibañez Boric, Mónica</text>
<text transform="matrix(1 0 0 1 673.2041 49.2632)" class="st89 st90">Ruiz Balart, Macarena</text>
<text transform="matrix(1 0 0 1 675.335 55.7817)" class="st89 st90">Stange Marcus, Hans</text>
<text transform="matrix(1 0 0 1 674.6953 61.9536)" class="st89 st90">Molina Oyarzún, Raúl</text>
<text transform="matrix(1 0 0 1 666.2822 68.2476)" class="st89 st90">Silva Roquefort, Rebeca</text>
<text transform="matrix(1 0 0 1 674.459 75.4722)" class="st89 st90">Mora Briones, Alfredo</text>
<text transform="matrix(1 0 0 1 62.5728 97.3867)" class="st89 st91">5.9</text>
<text transform="matrix(1 0 0 1 62.5728 105.229)" class="st89 st91">5.2</text>
<text transform="matrix(1 0 0 1 409.4707 98.5576)" class="st89 st91">5.9</text>
<text transform="matrix(1 0 0 1 409.4707 106.3999)" class="st89 st91">5.1</text>
<text transform="matrix(1 0 0 1 409.4707 114.2417)" class="st89 st91">4</text>
<text transform="matrix(1 0 0 1 409.4707 122.084)" class="st89 st91">4.9</text>
<text transform="matrix(1 0 0 1 409.4707 129.9258)" class="st89 st91">5.6</text>
<text transform="matrix(1 0 0 1 670.123 81.5757)" class="st89 st90">Vico Sánchez, Mauricio</text>
<text transform="matrix(1 0 0 1 684.127 89.418)" class="st89 st90">Perelli Soto, Bruno</text>
<text transform="matrix(1 0 0 1 663 97.2598)" class="st89 st90">Lepe Muñoz, Juan Carlos</text>
<text transform="matrix(1 0 0 1 679.1377 104.2124)" class="st89 st90">Perea Morales, René</text>
<text transform="matrix(1 0 0 1 674.1025 112.0547)" class="st89 st90">Méndez Olivares, Iván</text>
<text transform="matrix(1 0 0 1 653.7363 119.8965)" class="st89 st90">Benavides Bermúdez, Paola</text>
<text transform="matrix(1 0 0 1 677.4355 127.7388)" class="st89 st90">Jove Avilés, Trinidad</text>
<text transform="matrix(1 0 0 1 409.4707 138.6167)" class="st89 st91">6.9</text>
<text transform="matrix(1 0 0 1 62.5728 113.9194)" class="st89 st91">6.1</text>
<text transform="matrix(1 0 0 1 62.5728 123.459)" class="st89 st91">4.6</text>
<text transform="matrix(1 0 0 1 409.4707 148.1562)" class="st89 st91">5.2</text>
<text transform="matrix(1 0 0 1 675.0098 136.4297)" class="st89 st90">Gómez Moya, Cristián</text>
<text transform="matrix(1 0 0 1 666.7988 147.7476)" class="st89 st91">Reyes León, Daniel</text>
<text transform="matrix(1 0 0 1 624.7559 157.2871)" class="st89 st91">Zorzano Betancourt, Osvaldo</text>
<text transform="matrix(1 0 0 1 621.2842 166.8267)" class="st89 st91">Maldonado de la Fuente, Felix</text>
<text transform="matrix(1 0 0 1 612.3818 176.3657)" class="st89 st91">Pradenas Guentherodt, Gabriela</text>
<text transform="matrix(1 0 0 1 62.5728 133.8467)" class="st89 st91">5.6</text>
<text transform="matrix(1 0 0 1 409.4707 158.5439)" class="st89 st91">6.1</text>
<text transform="matrix(1 0 0 1 409.4707 169.7808)" class="st89 st91">6.6</text>
<text transform="matrix(1 0 0 1 62.5728 145.0835)" class="st89 st91">5.3</text>
<text transform="matrix(1 0 0 1 62.5728 156.3203)" class="st89 st91">4.8</text>
<text transform="matrix(1 0 0 1 656.0352 186.7539)" class="st89 st91">Tapia Reyes, Mauricio</text>
<text transform="matrix(1 0 0 1 667.2539 197.9907)" class="st89 st91">Lares López, Lorna</text>
<text transform="matrix(1 0 0 1 651.4404 209.2275)" class="st89 st91">Nuñez Gutiérrez, Pablo</text>
<text transform="matrix(1 0 0 1 647.8223 220.4639)" class="st89 st91">Marín Pacheco, Antonio</text>
<text transform="matrix(1 0 0 1 409.4707 181.8662)" class="st89 st91">6.7</text>
<text transform="matrix(1 0 0 1 62.5728 168.4058)" class="st89 st91">6.8</text>
<text transform="matrix(1 0 0 1 62.5728 181.3398)" class="st89 st91">6.7</text>
<text transform="matrix(1 0 0 1 62.5728 194.2734)" class="st89 st91">5.7</text>
<text transform="matrix(1 0 0 1 409.4707 194.7998)" class="st89 st91">6.4</text>
<text transform="matrix(1 0 0 1 409.4707 207.7339)" class="st89 st91">5.3</text>
<text transform="matrix(1 0 0 1 627.7002 232.5493)" class="st89 st91">Pagueguy Fenner, Sebastián</text>
<text transform="matrix(1 0 0 1 62.5728 208.0566)" class="st89 st91">4</text>
<text transform="matrix(1 0 0 1 409.4707 221.5166)" class="st89 st91">6.8</text>
<text transform="matrix(1 0 0 1 409.4707 236.1479)" class="st89 st91">4.8</text>
<text transform="matrix(1 0 0 1 648.4385 246.332)" class="st89 st91">Gatica Ramírez, Pamela</text>
<text transform="matrix(1 0 0 1 639.0625 260.9634)" class="st89 st91">Morales Mujica, María Paz</text>
<text transform="matrix(1 0 0 1 655.374 275.5947)" class="st89 st91">Young Araya, Mariana</text>
<text transform="matrix(1 0 0 1 409.4707 251.6279)" class="st89 st91">5.7</text>
<text transform="matrix(1 0 0 1 62.5728 223.5361)" class="st89 st91">6.2</text>
<text transform="matrix(1 0 0 1 652.8984 291.0747)" class="st89 st91">Osses Flores, Roberto</text>
<text transform="matrix(1 0 0 1 639.0693 307.4033)" class="st89 st91">Donoso Cisternas, Sergio</text>
<text transform="matrix(1 0 0 1 632.6328 323.7324)" class="st89 st91">De la Sotta Lazzerini, Paola</text>
<text transform="matrix(1 0 0 1 409.4707 268.8052)" class="st89 st91">5</text>
<text transform="matrix(1 0 0 1 648.4951 340.9092)" class="st89 st91">Soto Calquín, Leonardo</text>
<text transform="matrix(1 0 0 1 62.5728 241.5625)" class="st89 st91">5</text>
<text transform="matrix(1 0 0 1 652.417 359.7842)" class="st89 st91">Cortez Orellana, Felipe</text>
<text transform="matrix(1 0 0 1 630.1455 379.5068)" class="st89 st91">Castillo Espinoza, Eduardo</text>
<text transform="matrix(1 0 0 1 62.5728 262.1343)" class="st89 st91">4.5</text>
<text transform="matrix(1 0 0 1 62.5728 283.5547)" class="st89 st91">6.3</text>
<text transform="matrix(1 0 0 1 409.4707 288.5288)" class="st89 st91">6.2</text>
<text transform="matrix(1 0 0 1 657.8203 400.0791)" class="st89 st91">Abud Carrillo, Jenny</text>
<text transform="matrix(1 0 0 1 409.4707 310.7979)" class="st89 st91">5.8</text>
<text transform="matrix(1 0 0 1 62.5728 305.8242)" class="st89 st91">5.8</text>
<text transform="matrix(1 0 0 1 637.5332 422.3486)" class="st89 st91">Wechsler Pizarro, Andrea</text>
<text transform="matrix(1 0 0 1 409.4707 334.7646)" class="st89 st91">6.3</text>
<text transform="matrix(1 0 0 1 628.165 446.3154)" class="st89 st91">Dueñas Santander, Rodrigo</text>
<text transform="matrix(1 0 0 1 646.9365 471.9785)" class="st89 st91">Jacob Dazarola, Rubén</text>
<text transform="matrix(1 0 0 1 659.2793 500.1885)" class="st89 st91">Ode Saleh, Verónica</text>
<text transform="matrix(1 0 0 1 409.4707 362.9746)" class="st89 st91">5.5</text>
<text transform="matrix(1 0 0 1 62.5728 336.5801)" class="st89 st91">5.5</text>
<text transform="matrix(1 0 0 1 409.4707 400.5195)" class="st89 st91">7</text>
<text transform="matrix(1 0 0 1 62.5728 379.2168)" class="st89 st91">6.5</text>
<text transform="matrix(1 0 0 1 625.2531 532.2066)" class="st89 st92">Domínguez González, Pablo</text>
<text transform="matrix(1 0 0 1 409.4707 446.5518)" class="st89 st91">6</text>
<text transform="matrix(1 0 0 1 62.5728 430.3408)" class="st89 st91">7</text>
<text transform="matrix(1 0 0 1 409.4707 505.3135)" class="st89 st91">6.5</text>
<text transform="matrix(1 0 0 1 62.5728 493.3457)" class="st89 st91">6</text>
<text transform="matrix(1 0 0 1 56.3997 56.7446)" class="st93 st89 st94">Nota proyecto</text>
<text transform="matrix(1 0 0 1 369.6074 53.0093)" class="st93 st89 st94">Nota Anteproyecto</text>
<text transform="matrix(1 0 0 1 687.3344 28.875)" class="st93 st89 st94">Profesor guía</text>
</svg>
