<svg xmlns="http://www.w3.org/2000/svg" viewBox="0 0 800 400" width="805" height="600"><rect width="805" height="600" x="0" y="0" fill="#FFFFFF" id="background"/><g id="viz"><g transform="translate(0,0)"><g transform="translate(50,20)"><g class="bars"><rect id="undefined - Aprueban" x="4.968918269079452" y="536" height="24" width="49.45535805318044" fill="#1f77b4"/><rect id="undefined - Reprueban" x="55.414556407093635" y="352" height="208" width="49.45535805318044" fill="#ff7f0e"/><rect id="undefined - Aprueban" x="110.82911281418721" y="480.00000000000006" height="79.99999999999994" width="49.45535805318044" fill="#1f77b4"/><rect id="undefined - Reprueban" x="161.2747509522014" y="288" height="272" width="49.45535805318044" fill="#ff7f0e"/><rect id="undefined - Aprueban" x="216.68930735929496" y="472" height="88" width="49.45535805318044" fill="#1f77b4"/><rect id="undefined - Reprueban" x="267.13494549730916" y="88" height="472" width="49.45535805318044" fill="#ff7f0e"/><rect id="undefined - Aprueban" x="322.5495019044027" y="400" height="160" width="49.45535805318044" fill="#1f77b4"/><rect id="undefined - Reprueban" x="372.9951400424169" y="184.00000000000003" height="376" width="49.45535805318044" fill="#ff7f0e"/><rect id="undefined - Aprueban" x="428.4096964495105" y="120.00000000000001" height="440" width="49.45535805318044" fill="#1f77b4"/><rect id="undefined - Reprueban" x="478.8553345875247" y="215.99999999999997" height="344" width="49.45535805318044" fill="#ff7f0e"/><rect id="undefined - Aprueban" x="534.2698909946183" y="248" height="312" width="49.45535805318044" fill="#1f77b4"/><rect id="undefined - Reprueban" x="584.7155291326325" y="392" height="168" width="49.45535805318044" fill="#ff7f0e"/><rect id="undefined - Aprueban" x="640.130085539726" y="7.999999999999972" height="552" width="49.45535805318044" fill="#1f77b4"/><rect id="undefined - Reprueban" x="690.5757236777401" y="152.00000000000003" height="408" width="49.45535805318044" fill="#ff7f0e"/></g><g id="xAxis" transform="translate(0,560)" fill="none" font-size="10" font-family="sans-serif" text-anchor="middle"><path class="domain" stroke="currentColor" d="M0.5,0.5H745.5"/><g class="tick" opacity="1" transform="translate(54.91941636467676,0)"><line stroke="currentColor" y2="6"/><text fill="currentColor" y="9" dy="0.71em">2021-2</text></g><g class="tick" opacity="1" transform="translate(160.77961090978454,0)"><line stroke="currentColor" y2="6"/><text fill="currentColor" y="9" dy="0.71em">2022-1</text></g><g class="tick" opacity="1" transform="translate(266.63980545489227,0)"><line stroke="currentColor" y2="6"/><text fill="currentColor" y="9" dy="0.71em">2022-2</text></g><g class="tick" opacity="1" transform="translate(372.5,0)"><line stroke="currentColor" y2="6"/><text fill="currentColor" y="9" dy="0.71em">2023-1</text></g><g class="tick" opacity="1" transform="translate(478.3601945451078,0)"><line stroke="currentColor" y2="6"/><text fill="currentColor" y="9" dy="0.71em">2023-2</text></g><g class="tick" opacity="1" transform="translate(584.2203890902156,0)"><line stroke="currentColor" y2="6"/><text fill="currentColor" y="9" dy="0.71em">2024-1</text></g><g class="tick" opacity="1" transform="translate(690.0805836353233,0)"><line stroke="currentColor" y2="6"/><text fill="currentColor" y="9" dy="0.71em">2024-2</text></g></g><g id="yAxis" fill="none" font-size="10" font-family="sans-serif" text-anchor="end"><path class="domain" stroke="currentColor" d="M0.5,560.5V0.5"/><g class="tick" opacity="1" transform="translate(0,560.5)"><line stroke="currentColor" x2="-6"/><text fill="currentColor" x="-9" dy="0.32em">0</text></g><g class="tick" opacity="1" transform="translate(0,520.5)"><line stroke="currentColor" x2="-6"/><text fill="currentColor" x="-9" dy="0.32em">5</text></g><g class="tick" opacity="1" transform="translate(0,480.50000000000006)"><line stroke="currentColor" x2="-6"/><text fill="currentColor" x="-9" dy="0.32em">10</text></g><g class="tick" opacity="1" transform="translate(0,440.5)"><line stroke="currentColor" x2="-6"/><text fill="currentColor" x="-9" dy="0.32em">15</text></g><g class="tick" opacity="1" transform="translate(0,400.5)"><line stroke="currentColor" x2="-6"/><text fill="currentColor" x="-9" dy="0.32em">20</text></g><g class="tick" opacity="1" transform="translate(0,360.49999999999994)"><line stroke="currentColor" x2="-6"/><text fill="currentColor" x="-9" dy="0.32em">25</text></g><g class="tick" opacity="1" transform="translate(0,320.5)"><line stroke="currentColor" x2="-6"/><text fill="currentColor" x="-9" dy="0.32em">30</text></g><g class="tick" opacity="1" transform="translate(0,280.5)"><line stroke="currentColor" x2="-6"/><text fill="currentColor" x="-9" dy="0.32em">35</text></g><g class="tick" opacity="1" transform="translate(0,240.50000000000003)"><line stroke="currentColor" x2="-6"/><text fill="currentColor" x="-9" dy="0.32em">40</text></g><g class="tick" opacity="1" transform="translate(0,200.49999999999997)"><line stroke="currentColor" x2="-6"/><text fill="currentColor" x="-9" dy="0.32em">45</text></g><g class="tick" opacity="1" transform="translate(0,160.5)"><line stroke="currentColor" x2="-6"/><text fill="currentColor" x="-9" dy="0.32em">50</text></g><g class="tick" opacity="1" transform="translate(0,120.50000000000001)"><line stroke="currentColor" x2="-6"/><text fill="currentColor" x="-9" dy="0.32em">55</text></g><g class="tick" opacity="1" transform="translate(0,80.50000000000003)"><line stroke="currentColor" x2="-6"/><text fill="currentColor" x="-9" dy="0.32em">60</text></g><g class="tick" opacity="1" transform="translate(0,40.499999999999986)"><line stroke="currentColor" x2="-6"/><text fill="currentColor" x="-9" dy="0.32em">65</text></g><g class="tick" opacity="1" transform="translate(0,0.5)"><line stroke="currentColor" x2="-6"/><text fill="currentColor" x="-9" dy="0.32em">70</text></g></g><text y="556" x="745" text-anchor="end" style="font-family: Arial, sans-serif; font-size: 12px; fill: rgb(123, 123, 123); font-weight: bold;">Sets</text><text y="0" x="4" dominant-baseline="hanging" text-anchor="start" style="font-family: Arial, sans-serif; font-size: 12px; fill: rgb(123, 123, 123); font-weight: bold;">Value</text></g><text x="4" y="4" style="font-family: Arial, sans-serif; font-size: 12px; fill: black; font-weight: bold; dominant-baseline: hanging;"/></g><g id="grid"><rect x="0" y="0" width="805" height="600" fill="none" stroke="#ccc"/></g></g></svg>